<?xml version="1.0" encoding="UTF-8" standalone="no"?>
<!-- Created with Inkscape (http://www.inkscape.org/) -->

<svg
   xmlns:dc="http://purl.org/dc/elements/1.1/"
   xmlns:cc="http://creativecommons.org/ns#"
   xmlns:rdf="http://www.w3.org/1999/02/22-rdf-syntax-ns#"
   xmlns:svg="http://www.w3.org/2000/svg"
   xmlns="http://www.w3.org/2000/svg"
   xmlns:sodipodi="http://sodipodi.sourceforge.net/DTD/sodipodi-0.dtd"
   xmlns:inkscape="http://www.inkscape.org/namespaces/inkscape"
   width="210mm"
   height="297mm"
   viewBox="0 0 744.09448819 1052.3622047"
   id="svg2"
   version="1.1"
   inkscape:version="0.91 r13725"
   sodipodi:docname="FullstackOverview.svg">
  <defs
     id="defs4">
    <inkscape:perspective
       sodipodi:type="inkscape:persp3d"
       inkscape:vp_x="-188.55214 : 490.70038 : 1"
       inkscape:vp_y="0 : 915.57579 : 0"
       inkscape:vp_z="875.66967 : 490.70038 : 1"
       inkscape:persp3d-origin="343.55877 : 330.11416 : 1"
       id="perspective6280" />
    <inkscape:perspective
       sodipodi:type="inkscape:persp3d"
       inkscape:vp_x="-1.1842808 : 547.3506 : 1"
       inkscape:vp_y="0 : 906.82255 : 0"
       inkscape:vp_z="756.07111 : 547.3506 : 1"
       inkscape:persp3d-origin="377.44341 : 388.29964 : 1"
       id="perspective6122" />
  </defs>
  <sodipodi:namedview
     id="base"
     pagecolor="#ffffff"
     bordercolor="#666666"
     borderopacity="1.0"
     inkscape:pageopacity="0.0"
     inkscape:pageshadow="2"
     inkscape:zoom="0.82142082"
     inkscape:cx="378.76965"
     inkscape:cy="531.6261"
     inkscape:document-units="px"
     inkscape:current-layer="layer1"
     showgrid="false"
     inkscape:snap-bbox="true"
     inkscape:window-width="1920"
     inkscape:window-height="1149"
     inkscape:window-x="0"
     inkscape:window-y="0"
     inkscape:window-maximized="1" />
  <metadata
     id="metadata7">
    <rdf:RDF>
      <cc:Work
         rdf:about="">
        <dc:format>image/svg+xml</dc:format>
        <dc:type
           rdf:resource="http://purl.org/dc/dcmitype/StillImage" />
      </cc:Work>
    </rdf:RDF>
  </metadata>
  <g
     inkscape:label="Layer 1"
     inkscape:groupmode="layer"
     id="layer1">
    <flowRoot
       xml:space="preserve"
       id="flowRoot6106"
       style="fill:black;stroke:none;stroke-opacity:1;stroke-width:1px;stroke-linejoin:miter;stroke-linecap:butt;fill-opacity:1;font-family:sans-serif;font-style:normal;font-weight:normal;font-size:40px;line-height:125%;letter-spacing:0px;word-spacing:0px"><flowRegion
         id="flowRegion6108"><rect
           id="rect6110"
           width="643.90369"
           height="339.16852"
           x="75.753372"
           y="100.28006" /></flowRegion><flowPara
         id="flowPara6112"></flowPara></flowRoot>    <flowRoot
       xml:space="preserve"
       id="flowRoot6114"
       style="fill:black;stroke:none;stroke-opacity:1;stroke-width:1px;stroke-linejoin:miter;stroke-linecap:butt;fill-opacity:1;font-family:sans-serif;font-style:normal;font-weight:normal;font-size:40px;line-height:125%;letter-spacing:0px;word-spacing:0px"><flowRegion
         id="flowRegion6116"><rect
           id="rect6118"
           width="49.92836"
           height="270.30179"
           x="110.18672"
           y="100.28006" /></flowRegion><flowPara
         id="flowPara6120"></flowPara></flowRoot>    <g
       sodipodi:type="inkscape:box3d"
       id="g6124"
       style="fill:#e3e2db;fill-opacity:0.78488375;stroke:#7b6cc1;stroke-width:1.5;stroke-miterlimit:4;stroke-dasharray:none;stroke-opacity:1"
       inkscape:perspectiveID="#perspective6122"
       inkscape:corner0="4.5564972 : 1.8309326 : 0 : 1"
       inkscape:corner7="2.2169194 : 1.5583305 : 0.53049174 : 1">
      <path
         sodipodi:type="inkscape:box3dside"
         id="path6136"
         style="fill:#e9e9ff;fill-rule:evenodd;stroke:none;stroke-width:1px;stroke-linecap:butt;stroke-linejoin:round;stroke-opacity:1"
         inkscape:box3dsidetype="11"
         d="m 127.01464,258.37408 80.03695,-153.98036 0,65.966 -80.03695,128.62585 z"
         points="207.05159,104.39372 207.05159,170.35972 127.01464,298.98557 127.01464,258.37408 " />
      <path
         sodipodi:type="inkscape:box3dside"
         id="path6126"
         style="fill:#353564;fill-rule:evenodd;stroke:none;stroke-width:1px;stroke-linecap:butt;stroke-linejoin:round;stroke-opacity:1"
         inkscape:box3dsidetype="6"
         d="m 66.957153,234.82702 0,44.48877 60.057487,19.66978 0,-40.61149 z"
         points="66.957153,279.31579 127.01464,298.98557 127.01464,258.37408 66.957153,234.82702 " />
      <path
         sodipodi:type="inkscape:box3dside"
         id="path6128"
         style="fill:#4d4d9f;fill-rule:evenodd;stroke:none;stroke-width:1px;stroke-linecap:butt;stroke-linejoin:round;stroke-opacity:1"
         inkscape:box3dsidetype="5"
         d="M 66.957153,234.82702 116.51456,38.329119 207.05159,104.39372 127.01464,258.37408 Z"
         points="116.51456,38.329119 207.05159,104.39372 127.01464,258.37408 66.957153,234.82702 " />
      <path
         sodipodi:type="inkscape:box3dside"
         id="path6134"
         style="fill:#afafde;fill-rule:evenodd;stroke:none;stroke-width:1px;stroke-linecap:butt;stroke-linejoin:round;stroke-opacity:1"
         inkscape:box3dsidetype="13"
         d="m 66.957153,279.31579 49.557407,-164.14243 90.53703,55.18636 -80.03695,128.62585 z"
         points="116.51456,115.17336 207.05159,170.35972 127.01464,298.98557 66.957153,279.31579 " />
      <path
         sodipodi:type="inkscape:box3dside"
         id="path6132"
         style="fill:#d7d7ff;fill-rule:evenodd;stroke:none;stroke-width:1px;stroke-linecap:butt;stroke-linejoin:round;stroke-opacity:1"
         inkscape:box3dsidetype="14"
         d="m 116.51456,38.329119 0,76.844241 90.53703,55.18636 0,-65.966 z"
         points="116.51456,115.17336 207.05159,170.35972 207.05159,104.39372 116.51456,38.329119 " />
      <path
         sodipodi:type="inkscape:box3dside"
         id="path6130"
         style="fill:#8686bf;fill-rule:evenodd;stroke:none;stroke-width:1px;stroke-linecap:butt;stroke-linejoin:round;stroke-opacity:1"
         inkscape:box3dsidetype="3"
         d="m 66.957153,234.82702 49.557407,-196.497901 0,76.844241 -49.557407,164.14243 z"
         points="116.51456,38.329119 116.51456,115.17336 66.957153,279.31579 66.957153,234.82702 " />
    </g>
    <g
       sodipodi:type="inkscape:box3d"
       id="g6152"
       style="fill:#e3e2db;fill-opacity:0.78488375;stroke:#7b6cc1;stroke-width:1.5;stroke-miterlimit:4;stroke-dasharray:none;stroke-opacity:1"
       inkscape:perspectiveID="#perspective6280"
       inkscape:corner0="-0.1510907 : 0.030485325 : 0 : 1"
       inkscape:corner7="-0.31478173 : -0.11258096 : 0.25 : 1">
      <path
         sodipodi:type="inkscape:box3dside"
         id="path6162"
         style="fill:#afafde;fill-rule:evenodd;stroke:none;stroke-width:1px;stroke-linecap:butt;stroke-linejoin:round;stroke-opacity:1"
         inkscape:box3dsidetype="13"
         d="m 438.26501,872.25169 149.73965,74.19646 76.89782,-102.86003 -127.12865,-41.9951 z"
         points="588.00466,946.44815 664.90248,843.58812 537.77383,801.59302 438.26501,872.25169 " />
      <path
         sodipodi:type="inkscape:box3dside"
         id="path6154"
         style="fill:#353564;fill-rule:evenodd;stroke:none;stroke-width:1px;stroke-linecap:butt;stroke-linejoin:round;stroke-opacity:1"
         inkscape:box3dsidetype="6"
         d="m 438.26501,717.95014 0,154.30155 99.50882,-70.65867 0,-119.19821 z"
         points="438.26501,872.25169 537.77383,801.59302 537.77383,682.39481 438.26501,717.95014 " />
      <path
         sodipodi:type="inkscape:box3dside"
         id="path6164"
         style="fill:#e9e9ff;fill-rule:evenodd;stroke:none;stroke-width:1px;stroke-linecap:butt;stroke-linejoin:round;stroke-opacity:1"
         inkscape:box3dsidetype="11"
         d="m 537.77383,682.39481 127.12865,21.13187 0,140.06144 -127.12865,-41.9951 z"
         points="664.90248,703.52668 664.90248,843.58812 537.77383,801.59302 537.77383,682.39481 " />
      <path
         sodipodi:type="inkscape:box3dside"
         id="path6156"
         style="fill:#4d4d9f;fill-rule:evenodd;stroke:none;stroke-width:1px;stroke-linecap:butt;stroke-linejoin:round;stroke-opacity:1"
         inkscape:box3dsidetype="5"
         d="m 438.26501,717.95014 149.73965,37.33553 76.89782,-51.75899 -127.12865,-21.13187 z"
         points="588.00466,755.28567 664.90248,703.52668 537.77383,682.39481 438.26501,717.95014 " />
      <path
         sodipodi:type="inkscape:box3dside"
         id="path6160"
         style="fill:#d7d7ff;fill-rule:evenodd;stroke:none;stroke-width:1px;stroke-linecap:butt;stroke-linejoin:round;stroke-opacity:1"
         inkscape:box3dsidetype="14"
         d="m 588.00466,755.28567 0,191.16248 76.89782,-102.86003 0,-140.06144 z"
         points="588.00466,946.44815 664.90248,843.58812 664.90248,703.52668 588.00466,755.28567 " />
      <path
         sodipodi:type="inkscape:box3dside"
         id="path6158"
         style="fill:#8686bf;fill-rule:evenodd;stroke:none;stroke-width:1px;stroke-linecap:butt;stroke-linejoin:round;stroke-opacity:1"
         inkscape:box3dsidetype="3"
         d="m 438.26501,717.95014 149.73965,37.33553 0,191.16248 -149.73965,-74.19646 z"
         points="588.00466,755.28567 588.00466,946.44815 438.26501,872.25169 438.26501,717.95014 " />
    </g>
    <text
       xml:space="preserve"
       style="font-style:normal;font-weight:normal;font-size:43.67483521px;line-height:125%;font-family:sans-serif;letter-spacing:0px;word-spacing:0px;fill:#000000;fill-opacity:1;stroke:none;stroke-width:1px;stroke-linecap:butt;stroke-linejoin:miter;stroke-opacity:1"
       x="148.87563"
       y="103.82458"
       id="text6180"
       sodipodi:linespacing="125%"
       transform="scale(0.91585922,1.0918709)"><tspan
         sodipodi:role="line"
         id="tspan6182"
         x="148.87563"
         y="103.82458">Server - A Remote Compter</tspan></text>
    <text
       xml:space="preserve"
       style="font-style:normal;font-weight:normal;font-size:37.34040451px;line-height:125%;font-family:sans-serif;letter-spacing:0px;word-spacing:0px;fill:#000000;fill-opacity:1;stroke:none;stroke-width:1px;stroke-linecap:butt;stroke-linejoin:miter;stroke-opacity:1"
       x="9.5309277"
       y="1052.9135"
       id="text6184"
       sodipodi:linespacing="125%"
       transform="scale(1.0307576,0.97016021)"><tspan
         sodipodi:role="line"
         id="tspan6186"
         x="9.5309277"
         y="1052.9135">Client - The Computer In Front of you </tspan></text>
    <path
       sodipodi:type="spiral"
       style="fill:none;fill-rule:evenodd;stroke:#000000;stroke-width:1px;stroke-linecap:butt;stroke-linejoin:miter;stroke-opacity:1"
       id="path6188"
       sodipodi:cx="269.04602"
       sodipodi:cy="220.8761"
       sodipodi:expansion="1"
       sodipodi:revolution="3"
       sodipodi:radius="22.96991"
       sodipodi:argument="-17.837358"
       sodipodi:t0="0"
       d="m 269.04602,220.8761 c 0.61039,0.97662 -1.01532,1.30462 -1.6232,1.0145 -1.64733,-0.7862 -1.41323,-3.07458 -0.4058,-4.26091 1.80204,-2.12206 5.10274,-1.65767 6.89861,0.2029 2.63551,2.73047 1.91631,7.16093 -0.8116,9.53633 -3.63589,3.16602 -9.2301,2.1814 -12.17403,-1.42031 -3.70463,-4.5324 -2.44994,-11.30459 2.02901,-14.81174 5.42461,-4.24762 13.38209,-2.72046 17.44944,2.63772 4.79323,6.31442 2.99225,15.46146 -3.24642,20.08714 -7.20278,5.34053 -17.54209,3.26488 -22.72485,-3.85512 -5.88897,-8.09018 -3.53808,-19.6236 4.46382,-25.36255 8.97693,-6.43824 21.70577,-3.81172 28.00027,5.07252 6.98809,9.8632 4.08567,23.7884 -5.68123,30.63797"
       transform="matrix(0.73054649,0,0,0.69667719,67.530255,73.02119)" />
    <text
       xml:space="preserve"
       style="font-style:normal;font-weight:normal;font-size:32.67922974px;line-height:125%;font-family:sans-serif;letter-spacing:0px;word-spacing:0px;fill:#000000;fill-opacity:1;stroke:none;stroke-width:1px;stroke-linecap:butt;stroke-linejoin:miter;stroke-opacity:1"
       x="292.0484"
       y="236.26038"
       id="text6190"
       sodipodi:linespacing="125%"
       transform="scale(1.0069912,0.99305735)"><tspan
         sodipodi:role="line"
         id="tspan6192"
         x="292.0484"
         y="236.26038">MySQL database</tspan><tspan
         sodipodi:role="line"
         x="292.0484"
         y="277.10941"
         id="tspan6194" /></text>
    <path
       sodipodi:type="spiral"
       style="fill:none;fill-rule:evenodd;stroke:#000000;stroke-width:1px;stroke-linecap:butt;stroke-linejoin:miter;stroke-opacity:1"
       id="path6196"
       sodipodi:cx="262.95901"
       sodipodi:cy="282.96365"
       sodipodi:expansion="1"
       sodipodi:revolution="3"
       sodipodi:radius="15.254013"
       sodipodi:argument="-17.778107"
       sodipodi:t0="0"
       d="m 262.95901,282.96365 c 0.36624,0.67143 -0.72438,0.82493 -1.11595,0.60871 -1.06113,-0.58597 -0.81594,-2.09379 -0.10145,-2.84061 1.27807,-1.33589 3.44791,-0.89824 4.56526,0.4058 1.63976,1.91373 0.98876,4.82249 -0.91305,6.28991 -2.53481,1.95584 -6.20461,1.08313 -8.01457,-1.4203 -2.27764,-3.1503 -1.17956,-7.5904 1.92755,-9.73922 3.76313,-2.60252 8.97826,-1.2772 11.46388,2.4348 2.92922,4.37446 1.3756,10.36741 -2.94205,13.18853 -4.9849,3.2571 -11.75742,1.47451 -14.91319,-3.4493 -3.58577,-5.59474 -1.57376,-13.14805 3.95656,-16.63784 6.20418,-3.91502 14.53911,-1.67329 18.36249,4.4638 4.24468,6.81334 1.773,15.93051 -4.97105,20.08715" />
    <path
       sodipodi:type="spiral"
       style="fill:none;fill-rule:evenodd;stroke:#000000;stroke-width:1px;stroke-linecap:butt;stroke-linejoin:miter;stroke-opacity:1"
       id="path6198"
       sodipodi:cx="259.30679"
       sodipodi:cy="337.74677"
       sodipodi:expansion="1"
       sodipodi:revolution="3"
       sodipodi:radius="13.880527"
       sodipodi:argument="-18.188513"
       sodipodi:t0="0"
       d="m 259.30679,337.74677 c 0.54935,0.42727 -0.30492,0.95131 -0.71015,0.91305 -1.09814,-0.10368 -1.44098,-1.45081 -1.11595,-2.33336 0.58141,-1.57867 2.5508,-2.00127 3.95656,-1.31885 2.063,1.00148 2.57585,3.66489 1.52175,5.57976 -1.40495,2.55223 -4.78386,3.15639 -7.20296,1.72466 -3.0442,-1.80169 -3.73997,-5.90515 -1.92756,-8.82617 2.19507,-3.53776 7.02772,-4.32531 10.44937,-2.13046 4.03231,2.58656 4.91176,8.15109 2.33336,12.07258 -2.97686,4.52751 -9.275,5.49893 -13.69578,2.53625 -5.02317,-3.36638 -6.08663,-10.39929 -2.73916,-15.31898 3.75537,-5.51915 11.52386,-6.67471 16.94219,-2.94206 6.01537,4.14395 7.26306,12.64864 3.14496,18.56539" />
    <path
       sodipodi:type="spiral"
       style="fill:none;fill-rule:evenodd;stroke:#000000;stroke-width:1px;stroke-linecap:butt;stroke-linejoin:miter;stroke-opacity:1"
       id="path6208"
       sodipodi:cx="115.65327"
       sodipodi:cy="655.48889"
       sodipodi:expansion="1"
       sodipodi:revolution="3"
       sodipodi:radius="20.660011"
       sodipodi:argument="-18.064157"
       sodipodi:t0="0"
       d="m 115.65327,655.48889 c 0.73246,0.73247 -0.62598,1.34872 -1.21741,1.2174 -1.60273,-0.35585 -1.86038,-2.40875 -1.2174,-3.6522 1.15014,-2.22424 4.13681,-2.48481 6.08702,-1.21741 2.862,1.85998 3.12774,5.88831 1.2174,8.52182 -2.54619,3.51007 -7.64812,3.77856 -10.95663,1.2174 -4.16342,-3.22295 -4.43346,-9.41189 -1.2174,-13.39143 3.89508,-4.81974 11.17792,-5.09071 15.82624,-1.2174 5.47789,4.56458 5.74946,12.94533 1.2174,18.26105 -5.23245,6.13721 -14.71366,6.40919 -20.69585,1.21739 -6.797345,-5.89924 -7.069617,-16.48265 -1.2174,-23.13065 6.56531,-7.45806 18.25212,-7.73054 25.56546,-1.2174 8.1192,7.23083 8.39185,20.02195 1.2174,28.00027" />
    <path
       sodipodi:type="spiral"
       style="fill:none;fill-rule:evenodd;stroke:#000000;stroke-width:1px;stroke-linecap:butt;stroke-linejoin:miter;stroke-opacity:1"
       id="path6214"
       sodipodi:cx="109.56625"
       sodipodi:cy="715.1416"
       sodipodi:expansion="1"
       sodipodi:revolution="3"
       sodipodi:radius="19.96689"
       sodipodi:argument="-18.193861"
       sodipodi:t0="0"
       d="m 109.56625,715.1416 c 0.79351,0.61039 -0.4313,1.37077 -1.0145,1.31886 -1.58043,-0.14069 -2.08396,-2.07585 -1.6232,-3.34786 0.82418,-2.27533 3.65383,-2.89838 5.68121,-1.92756 2.97525,1.42472 3.73346,5.25199 2.23191,8.01457 -2.00133,3.68208 -6.85712,4.57714 -10.34792,2.53626 -4.39282,-2.56824 -5.425229,-8.46555 -2.84062,-12.68128 3.13031,-5.10581 10.07582,-6.27585 15.01463,-3.14496 5.82022,3.68964 7.12808,11.68724 3.44932,17.34798 -4.24727,6.53556 -13.29943,7.98137 -19.68134,3.75368 -7.25153,-4.80377 -8.835393,-14.91217 -4.058024,-22.0147 5.359484,-7.96797 16.525284,-9.68997 24.348054,-4.36238 8.68476,5.91463 10.54494,18.1387 4.66673,26.68141" />
    <path
       sodipodi:type="spiral"
       style="fill:none;fill-rule:evenodd;stroke:#000000;stroke-width:1px;stroke-linecap:butt;stroke-linejoin:miter;stroke-opacity:1"
       id="path6216"
       sodipodi:cx="112.00106"
       sodipodi:cy="776.01178"
       sodipodi:expansion="1"
       sodipodi:revolution="3"
       sodipodi:radius="22.645"
       sodipodi:argument="-18.216806"
       sodipodi:t0="0"
       d="m 112.00106,776.01178 c 0.91558,0.67143 -0.45335,1.56544 -1.11595,1.52175 -1.79561,-0.11839 -2.41688,-2.29942 -1.92755,-3.75366 0.87528,-2.60128 4.06741,-3.38134 6.39136,-2.33335 3.4105,1.53797 4.36977,5.85771 2.73915,9.02907 -2.17336,4.22694 -7.6557,5.36813 -11.66678,3.14495 -5.04753,-2.79763 -6.37156,-9.45731 -3.55075,-14.30448 3.41638,-5.87057 11.26096,-7.37793 16.9422,-3.95655 6.69513,4.03198 8.38612,13.06586 4.36234,19.5799 -4.64561,7.52071 -14.8716,9.39556 -22.2176,4.76814 -8.346996,-5.25796 -10.405853,-16.67793 -5.173947,-24.85531 5.869407,-9.17377 18.484707,-11.41676 27.493017,-5.57974 10.00093,6.4802 12.42815,20.2918 5.98554,30.13072" />
    <text
       xml:space="preserve"
       style="font-style:normal;font-weight:normal;font-size:40px;line-height:125%;font-family:sans-serif;letter-spacing:0px;word-spacing:0px;fill:#000000;fill-opacity:1;stroke:none;stroke-width:1px;stroke-linecap:butt;stroke-linejoin:miter;stroke-opacity:1"
       x="289.74185"
       y="297.57248"
       id="text6218"
       sodipodi:linespacing="125%"><tspan
         sodipodi:role="line"
         id="tspan6220"
         x="289.74185"
         y="297.57248">PHP pro lang </tspan></text>
    <text
       xml:space="preserve"
       style="font-style:normal;font-weight:normal;font-size:40px;line-height:125%;font-family:sans-serif;letter-spacing:0px;word-spacing:0px;fill:#000000;fill-opacity:1;stroke:none;stroke-width:1px;stroke-linecap:butt;stroke-linejoin:miter;stroke-opacity:1"
       x="286.08966"
       y="349.92078"
       id="text6222"
       sodipodi:linespacing="125%"><tspan
         sodipodi:role="line"
         x="286.08966"
         y="349.92078"
         id="tspan6230">The &quot;Back End&quot;</tspan></text>
    <text
       xml:space="preserve"
       style="font-style:normal;font-weight:normal;font-size:40px;line-height:125%;font-family:sans-serif;letter-spacing:0px;word-spacing:0px;fill:#000000;fill-opacity:1;stroke:none;stroke-width:1px;stroke-linecap:butt;stroke-linejoin:miter;stroke-opacity:1"
       x="138.78392"
       y="674.96735"
       id="text6234"
       sodipodi:linespacing="125%"><tspan
         sodipodi:role="line"
         id="tspan6236"
         x="138.78392"
         y="674.96735"> HTML</tspan></text>
    <text
       xml:space="preserve"
       style="font-style:normal;font-weight:normal;font-size:40px;line-height:125%;font-family:sans-serif;letter-spacing:0px;word-spacing:0px;fill:#000000;fill-opacity:1;stroke:none;stroke-width:1px;stroke-linecap:butt;stroke-linejoin:miter;stroke-opacity:1"
       x="146.08833"
       y="734.62006"
       id="text6238"
       sodipodi:linespacing="125%"><tspan
         sodipodi:role="line"
         id="tspan6240"
         x="146.08833"
         y="734.62006">CSS</tspan></text>
    <text
       xml:space="preserve"
       style="font-style:normal;font-weight:normal;font-size:40px;line-height:125%;font-family:sans-serif;letter-spacing:0px;word-spacing:0px;fill:#000000;fill-opacity:1;stroke:none;stroke-width:1px;stroke-linecap:butt;stroke-linejoin:miter;stroke-opacity:1"
       x="148.52315"
       y="795.49023"
       id="text6242"
       sodipodi:linespacing="125%"><tspan
         sodipodi:role="line"
         id="tspan6244"
         x="148.52315"
         y="795.49023">JavaScript</tspan></text>
    <path
       style="fill:#e3e2db;fill-opacity:0.78488375;stroke:#7b6cc1;stroke-width:1.5;stroke-miterlimit:4;stroke-dasharray:none;stroke-opacity:1"
       id="path6250"
       d="m 153.28097,318.42529 c 2.38695,4.29639 4.58491,8.68482 7.10291,12.90944 2.33505,3.75803 5.1793,7.15745 7.768,10.73751 2.06523,3.34888 4.17505,6.683 6.07832,10.12906 1.52204,3.69902 3.09607,7.31319 5.04976,10.81626 4.04893,6.18549 9.40533,11.36719 14.0388,17.11187 3.67014,4.40399 6.86241,9.14856 9.43764,14.26648 2.01778,4.53606 4.39725,8.89933 6.73087,13.27833 2.29072,4.51241 5.34791,8.49366 8.43517,12.47053 3.14817,4.14168 6.66892,7.95778 10.10639,11.85195 2.89019,3.58391 6.05972,6.83492 9.44789,9.94245 3.81005,3.47609 7.5552,7.02192 11.27723,10.59183 3.3585,3.45093 6.92309,6.67033 10.50219,9.88729 3.60659,3.34353 7.80762,5.95663 11.7995,8.80647 3.68044,2.46601 7.38685,4.87184 10.86577,7.62054 3.95828,3.28307 7.79008,6.67118 11.37608,10.3581 4.0189,4.65211 7.96868,9.33017 12.4942,13.50115 4.33214,3.82271 8.98633,7.27287 13.69671,10.61283 4.11273,2.78775 8.11033,5.72231 11.93715,8.89179 2.92712,2.46757 5.66655,5.14418 8.38789,7.83345 2.71805,2.54567 5.04901,5.45233 7.48396,8.25931 2.27424,2.55765 4.66765,4.99215 6.83437,7.64299 1.94395,2.91366 4.23603,5.56178 6.3603,8.33751 2.15482,2.84139 4.28938,5.69818 6.4003,8.57267 3.13137,3.95282 6.07416,8.05026 8.97177,12.17752 2.79747,4.79419 6.53238,8.86311 10.09525,13.07038 2.93538,3.62577 5.98219,7.15382 9.16866,10.5604 3.21092,3.45629 6.57505,6.76574 9.9245,10.08661 2.83716,2.76304 5.63635,5.55365 8.22236,8.55416 2.8507,3.68985 5.33683,7.63881 7.87309,11.54591 2.27681,3.37414 4.91111,6.45534 6.93994,9.99284 2.04783,3.45115 4.04577,6.9366 5.8786,10.5073 1.56489,3.22451 3.6185,6.14474 6.1435,8.67999 2.40971,1.90734 4.28836,4.28326 6.17137,6.68407 0,0 -15.43964,9.20816 -15.43964,9.20816 l 0,0 c -1.84495,-2.35073 -3.7406,-4.61603 -6.05574,-6.52932 -2.59582,-2.72016 -4.8128,-5.72995 -6.41109,-9.15246 -1.78836,-3.56169 -3.78103,-7.02304 -5.86032,-10.42191 -1.97507,-3.52039 -4.60839,-6.57213 -6.79531,-9.95739 -2.47867,-3.85187 -4.96044,-7.71047 -7.83051,-11.28847 -2.54597,-2.97642 -5.35,-5.69217 -8.12019,-8.4583 -3.33092,-3.36878 -6.64872,-6.75049 -9.94932,-10.14901 -3.17265,-3.44987 -6.23185,-6.99365 -9.11975,-10.68724 -3.58377,-4.25805 -7.36982,-8.36195 -10.21986,-13.18278 -2.881,-4.1187 -5.80602,-8.2051 -8.99541,-12.092 -2.18082,-2.82164 -4.30412,-5.68541 -6.45805,-8.52733 -2.09927,-2.76957 -4.35767,-5.41844 -6.3405,-8.27821 -2.15273,-2.63758 -4.53789,-5.05671 -6.77938,-7.61812 -2.3948,-2.78366 -4.7054,-5.64546 -7.41687,-8.13567 -2.67735,-2.65301 -5.36861,-5.29741 -8.24031,-7.74224 -3.77807,-3.15348 -7.76496,-6.01287 -11.80159,-8.8244 -4.73018,-3.41694 -9.42545,-6.90973 -13.74154,-10.84571 -4.53946,-4.19919 -8.51165,-8.90606 -12.59659,-13.53948 -3.58117,-3.60651 -7.40018,-6.92477 -11.37511,-10.09276 -3.45771,-2.72077 -7.14367,-5.10048 -10.77224,-7.58275 -4.02615,-2.89837 -8.26044,-5.55861 -11.86861,-8.9894 -3.61654,-3.21276 -7.19761,-6.46023 -10.57588,-9.92646 -3.67232,-3.59425 -7.39184,-7.14043 -11.23096,-10.55714 -3.45187,-3.13139 -6.63755,-6.46227 -9.55145,-10.10567 -3.46047,-3.92079 -6.93093,-7.82512 -10.13244,-11.96604 -3.15697,-4.05469 -6.30424,-8.09897 -8.59408,-12.73326 -2.33377,-4.39899 -4.79079,-8.7441 -6.80794,-13.30064 -2.4186,-5.05414 -5.53106,-9.69667 -9.06909,-14.04086 -4.60194,-5.90797 -10.05958,-11.09406 -14.32236,-17.25431 -2.10068,-3.56983 -3.6615,-6.94485 -5.15037,-10.78807 -1.8782,-3.3769 -3.89799,-6.67622 -5.93099,-9.96079 -2.63692,-3.6096 -5.47521,-7.08422 -7.77871,-10.92528 -2.49831,-4.24333 -4.68663,-8.65841 -7.32334,-12.81449 0,0 15.6551,-9.02919 15.6551,-9.02919 z"
       inkscape:connector-curvature="0" />
    <path
       style="fill:#e3e2db;fill-opacity:0.78488375;stroke:#7b6cc1;stroke-width:1.5;stroke-miterlimit:4;stroke-dasharray:none;stroke-opacity:1"
       id="path6252"
       d="m 204.54271,220.67133 c 3.90367,0.55769 7.84504,0.76452 11.78208,0.90836 3.33266,0.10166 6.66743,0.10069 10.00132,0.10105 3.08095,-0.10178 6.10826,-0.0336 9.15256,0.43422 1.7823,0.55551 3.57502,1.05437 5.40107,1.44139 0,0 -14.84048,10.27441 -14.84048,10.27441 l 0,0 c -1.76183,-0.44204 -3.49654,-0.99669 -5.28561,-1.32092 -2.98981,-0.35843 -5.99065,-0.22815 -8.99676,-0.24818 -3.33828,-0.0123 -6.67708,-0.0382 -10.01262,-0.18905 -3.99245,-0.21578 -7.97924,-0.51662 -11.95333,-0.96127 0,0 14.75177,-10.44001 14.75177,-10.44001 z"
       inkscape:connector-curvature="0" />
    <path
       style="fill:#e3e2db;fill-opacity:0.78488375;stroke:#7b6cc1;stroke-width:1.5;stroke-miterlimit:4;stroke-dasharray:none;stroke-opacity:1"
       id="path6254"
       d="m 184.99938,266.69527 c 7.00461,0.16583 14.01222,0.13766 21.01832,0.13734 6.24928,-0.0658 12.49609,-0.24138 18.68735,0.72456 3.68285,0.86823 7.23779,2.16945 10.88053,3.17217 3.32878,0.56057 6.49126,1.69359 9.55785,3.07512 0.57152,0.24159 1.14304,0.48318 1.71456,0.72477 0,0 -14.94396,9.96505 -14.94396,9.96505 l 0,0 c -0.57076,-0.24411 -1.14153,-0.48822 -1.71229,-0.73233 -3.07237,-1.24725 -6.23813,-2.16402 -9.47951,-2.86587 -3.51808,-1.08507 -7.00543,-2.30621 -10.61898,-3.04537 -6.08262,-0.79656 -12.20604,-0.66524 -18.32948,-0.66928 -7.13215,-3.3e-4 -14.26564,-0.0253 -21.39638,0.13733 0,0 14.62199,-10.62349 14.62199,-10.62349 z"
       inkscape:connector-curvature="0" />
    <path
       style="fill:#e3e2db;fill-opacity:0.78488375;stroke:#7b6cc1;stroke-width:1.5;stroke-miterlimit:4;stroke-dasharray:none;stroke-opacity:1"
       id="path6256"
       d="m 293.65489,667.37076 c 5.1163,3.84499 10.58157,7.19358 15.89836,10.74815 5.08988,3.42853 10.24054,6.73161 15.09371,10.49564 4.33764,3.59681 8.31785,7.59998 12.31464,11.56526 3.71924,4.12763 8.14025,7.37209 12.91003,10.1584 4.24594,2.35599 8.6415,4.49402 13.22942,6.09351 4.13877,1.39175 8.00996,3.42775 12.01304,5.15091 3.77662,1.88825 7.64036,3.53863 11.60628,4.99123 3.26939,1.36281 6.65882,2.39219 9.79419,4.05829 2.43292,1.44204 5.08935,1.97657 7.86168,2.22536 2.91353,0.1854 5.83525,0.15813 8.75308,0.14572 0.51369,-3.2e-4 1.02738,-6.3e-4 1.54107,-9.5e-4 0,0 -14.56947,10.59098 -14.56947,10.59098 l 0,0 c -0.51844,0.002 -1.03687,0.005 -1.55531,0.007 -2.96105,-0.009 -5.93221,0.0153 -8.87906,-0.31617 -2.90904,-0.41905 -5.6465,-1.26935 -8.19826,-2.76809 -3.12424,-1.51915 -6.43403,-2.58542 -9.63357,-3.93074 -3.95549,-1.55196 -7.8363,-3.25024 -11.67973,-5.06093 -3.91392,-1.78822 -7.77102,-3.7292 -11.85688,-5.10482 -4.64085,-1.74333 -9.12149,-3.89475 -13.41452,-6.37683 -4.82789,-2.93002 -9.23573,-6.40563 -13.08788,-10.55828 -3.96281,-3.91219 -7.91401,-7.85454 -12.24937,-11.36021 -4.7754,-3.75766 -9.88027,-7.02342 -14.87538,-10.47529 -5.39575,-3.57993 -10.90197,-6.99156 -16.25138,-10.64184 0,0 15.23531,-9.63621 15.23531,-9.63621 z"
       inkscape:connector-curvature="0" />
    <path
       style="fill:#e3e2db;fill-opacity:0.78488375;stroke:#7b6cc1;stroke-width:1.5;stroke-miterlimit:4;stroke-dasharray:none;stroke-opacity:1"
       id="path6258"
       d="m 253.9418,713.51783 c 1.00465,0.45807 1.98387,0.97663 3.01396,1.37422 5.01754,1.93665 10.25832,3.41712 15.38196,5.03427 4.60566,1.45365 9.19853,2.94754 13.8001,4.41408 15.31284,5.0103 30.73734,9.67387 45.94872,14.9909 8.5782,2.81395 17.11214,5.75745 25.65167,8.68475 3.81664,1.09935 7.65253,2.17077 11.57672,2.8125 3.38881,0.39745 6.80553,0.42264 10.21297,0.43989 3.08891,-0.003 6.1778,-0.0116 9.26669,-0.0248 3.06145,-0.002 6.12289,-0.003 9.18435,-0.004 3.02328,-0.005 6.04652,7e-4 9.06981,-0.005 3.06261,0.005 6.12522,0.004 9.18783,0.005 1.50898,0.1672 2.85758,-0.19635 4.26247,-0.6721 0,0 -14.32477,10.94627 -14.32477,10.94627 l 0,0 c -1.49779,0.24562 -2.98541,0.40621 -4.50888,0.3124 -3.06666,3.9e-4 -6.13333,-2.5e-4 -9.19999,0.004 -3.01917,-0.005 -6.03832,1.7e-4 -9.05749,-0.004 -3.06449,0.002 -6.12901,0.003 -9.19348,0.0148 -3.08486,0.002 -6.16984,0.0223 -9.25458,-0.0121 -3.47406,-0.0534 -6.96073,-0.13503 -10.3986,-0.6877 -3.92335,-0.80329 -7.79484,-1.87539 -11.5924,-3.14431 -8.3452,-3.04207 -16.60993,-6.30238 -25.04598,-9.09346 -15.15274,-5.40736 -30.52004,-10.16658 -45.87287,-14.96847 -11.06142,-3.40802 -22.2784,-6.44953 -33.10095,-10.55355 0,0 14.99274,-9.86468 14.99274,-9.86468 z"
       inkscape:connector-curvature="0" />
    <path
       style="fill:#e3e2db;fill-opacity:0.78488375;stroke:#7b6cc1;stroke-width:1.5;stroke-miterlimit:4;stroke-dasharray:none;stroke-opacity:1"
       id="path6260"
       d="m 369.09951,774.36599 c 4.7458,0.0739 9.49275,0.0575 14.23896,0.0361 3.32396,-0.0255 6.64792,-0.0318 9.97194,-0.0332 3.01811,-0.10239 5.9813,-0.0188 8.96208,0.44514 2.02875,0.30838 4.13742,0.40248 6.10196,1.05353 1.09589,0.36318 2.12167,0.91108 3.18388,1.36338 2.82305,1.28518 5.87232,1.68154 8.93144,1.91066 2.0094,0.11608 3.9976,0.20867 5.98893,-0.0938 0,0 -14.48662,10.72557 -14.48662,10.72557 l 0,0 c -2.06445,0.0681 -4.12753,0.0119 -6.18588,-0.17768 -3.17231,-0.37264 -6.29136,-1.00324 -9.20533,-2.36804 -2.91745,-1.16623 -5.92348,-1.76142 -9.05648,-2.0203 -2.92762,-0.35537 -5.86615,-0.23586 -8.81028,-0.24813 -3.29351,-10e-4 -6.58696,-0.008 -9.88041,-0.0332 -4.77934,-0.0218 -9.55936,-0.0367 -14.33831,0.0361 0,0 14.58412,-10.59598 14.58412,-10.59598 z"
       inkscape:connector-curvature="0" />
    <text
       xml:space="preserve"
       style="font-style:normal;font-weight:normal;font-size:40px;line-height:125%;font-family:sans-serif;letter-spacing:0px;word-spacing:0px;fill:#000000;fill-opacity:1;stroke:none;stroke-width:1px;stroke-linecap:butt;stroke-linejoin:miter;stroke-opacity:1"
       x="405.39514"
       y="498.44394"
       id="text6262"
       sodipodi:linespacing="125%"><tspan
         sodipodi:role="line"
         id="tspan6264"
         x="405.39514"
         y="498.44394">This is called</tspan><tspan
         sodipodi:role="line"
         x="405.39514"
         y="548.44397"
         id="tspan6266">&quot;The Cloud&quot;</tspan></text>
    <path
       style="fill:none;fill-rule:evenodd;stroke:#000000;stroke-width:1px;stroke-linecap:butt;stroke-linejoin:miter;stroke-opacity:1"
       d="m 423.65617,414.44314 c 1.54428,4.42001 7.03021,7.34461 9.73922,10.95663 0.24348,0.32464 -0.18148,0.85444 0,1.2174 0.82917,1.65833 5.98984,3.62444 6.08702,3.65221 0.92622,0.26464 10.22693,0 10.95662,0 4.38763,0 9.15416,0.4775 13.39143,-1.2174 2.19697,-0.87879 3.90283,-2.74213 6.08702,-3.65221 2.72702,-1.13626 5.82217,-1.23496 8.52182,-2.43481 1.04885,-0.46615 1.47979,-1.79813 2.4348,-2.4348 3.02001,-2.01334 6.83555,-2.69186 9.73922,-4.86961 0.63872,-0.47904 -1.10035,-2.49333 1.21741,-3.65221 0.36296,-0.18148 0.8116,0 1.2174,0 0.4058,0 0.8116,0 1.2174,0 1.21741,0 2.47116,-0.29527 3.65221,0 0.55676,0.13919 0.75829,0.87307 1.2174,1.2174 1.17051,0.87788 2.26416,1.97212 3.65221,2.43481 1.15493,0.38497 2.47116,-0.29527 3.65221,0 0.55676,0.13918 0.66065,1.07821 1.2174,1.2174 0.79766,0.19941 10.37256,0 10.95663,0 1.6232,0 3.24641,0 4.86961,0 0.4058,0 0.8116,0 1.2174,0 0.4058,0 0.85445,0.18148 1.21741,0 0.57068,-0.28534 4.01358,-2.36816 4.86961,-3.65221 0.50333,-0.755 0.71407,-1.6798 1.2174,-2.43481 1.12549,-1.68823 2.47287,-3.21854 3.65221,-4.86961 0.85043,-1.1906 1.40021,-2.61761 2.4348,-3.65221 1.0346,-1.03459 2.38185,-1.70888 3.65221,-2.4348 5.08679,-2.90674 7.94338,-3.31303 13.39143,-4.86961 1.23388,-0.35254 2.40727,-0.90617 3.65221,-1.2174 0.39369,-0.0984 0.8116,0 1.2174,0 0.81161,0 1.62321,0 2.43481,0 2.029,0 4.05801,0 6.08701,0 0.49764,0 7.98711,-0.21389 8.52182,0 2.29429,0.91771 3.33753,2.12012 4.86961,3.6522 0.4058,0.4058 0.7041,0.96076 1.21741,1.21741 0.36296,0.18148 0.8116,0 1.2174,0 0.4058,0 0.8116,0 1.2174,0 2.43481,0 4.86961,0 7.30442,0 2.84061,0 5.68121,0 8.52182,0 0.4058,0 0.8116,0 1.2174,0 0.4058,0 0.87976,0.22509 1.2174,0 0.95501,-0.63668 1.62321,-1.62321 2.43481,-2.43481 0.8116,-0.8116 1.74614,-1.51658 2.43481,-2.4348 0.94456,-1.25943 2.1279,-4.85942 2.4348,-6.08702 0.4453,-1.7812 -0.98237,-3.76972 1.2174,-4.86961 0.32011,-0.16005 4.23301,0 4.86961,0 1.62321,0 3.24641,0 4.86962,0 5.32834,0 8.64693,0.42103 12.17402,-4.86961 2.2891,-3.43365 0.70193,-2.99415 1.21741,-6.08702 0.27506,-1.65039 0.88927,-3.22894 1.2174,-4.86961 0.76088,-3.80438 -3.04351,3.04351 0,-6.08701 0.36296,-1.08888 2.00853,-1.36912 2.4348,-2.43481 0.16786,-0.41963 0,-8.97142 0,-9.73922 0,-2.029 0,-4.05801 0,-6.08701 0,-0.4058 0.12833,-0.83243 0,-1.2174 -0.28694,-0.86084 -1.2174,-1.52741 -1.2174,-2.43481 0,-3.34554 2.80431,-5.23911 4.86961,-7.30442 2.02901,-2.029 4.05801,-4.05801 6.08702,-6.08701 0.8116,-0.8116 1.86535,-1.43826 2.4348,-2.43481 1.08422,-1.89737 1.45751,-4.13241 2.43481,-6.08701 0.25665,-0.5133 0.8116,-0.8116 1.2174,-1.2174 1.2174,-2.02901 2.77342,-3.89005 3.65221,-6.08702 0.76848,-1.92119 0.67296,-4.09073 1.2174,-6.08701 0.6753,-2.47608 1.55772,-4.89243 2.43481,-7.30442 0.74681,-2.05373 1.96074,-3.95375 2.4348,-6.08701 0.35213,-1.58455 -0.22955,-3.26272 0,-4.86961 0.18148,-1.27036 0.90617,-2.40727 1.21741,-3.65221 0.0984,-0.39369 0,-0.8116 0,-1.2174 0,-0.81161 0,-1.62321 0,-2.43481 0,-2.43481 0,-4.86961 0,-7.30442 0,-2.4348 0,-4.86961 0,-7.30441 0,-1.21741 0.20014,-2.45137 0,-3.65221 -1.7811,-10.68658 -0.44783,1.86091 -2.43481,-6.08702 -0.19684,-0.78737 0,-1.6232 0,-2.4348 0,-1.62321 0,-3.24641 0,-4.86961 0,-0.4058 0.18148,-0.85445 0,-1.21741 -0.25665,-0.5133 -0.8116,-0.8116 -1.2174,-1.2174 0,-0.8116 0.25665,-1.66485 0,-2.4348 -0.18148,-0.54444 -0.8116,-0.81161 -1.2174,-1.21741 -0.81161,-0.8116 -1.62321,-1.6232 -2.43481,-2.4348 -0.4058,-0.4058 -1.2174,-0.64352 -1.2174,-1.2174 0,-0.57389 0.8116,-0.81161 1.2174,-1.21741 0.4058,-0.4058 0.8116,-0.8116 1.2174,-1.2174 0.4058,-0.4058 0.7041,-0.96075 1.21741,-1.2174 1.49547,-0.74774 3.95281,-0.60121 4.86961,-2.43481 0.36296,-0.72592 -0.36296,-1.70889 0,-2.4348 0.25665,-0.51331 0.96075,-0.70411 1.2174,-1.21741 0.18148,-0.36296 -0.12833,-0.83242 0,-1.2174 0.28694,-0.86083 0.93046,-1.57397 1.2174,-2.43481 0.25665,-0.76995 0,-1.6232 0,-2.4348 0,-2.43481 0,-4.86961 0,-7.30442 0,-0.8116 -0.19684,-1.64743 0,-2.4348 0.22008,-0.88031 0.57578,-1.79318 1.2174,-2.43481 0.28695,-0.28694 0.81161,0 1.21741,0 1.08802,0 5.69906,0.19398 6.08701,0 0.5133,-0.25665 0.8116,-0.8116 1.2174,-1.2174 2.84061,-1.2174 5.61138,-2.61277 8.52182,-3.65221 25.39918,-9.07113 -10.13923,5.2731 18.26105,-6.08701 0.84249,-0.337 1.6798,-0.71407 2.4348,-1.21741 0.47751,-0.31833 0.67296,-1.03592 1.2174,-1.2174 5.54197,0 0.0696,0.57389 3.65221,-1.2174 0.97392,-0.48696 2.67829,0.48696 3.65221,0 0.5133,-0.25665 0.7041,-0.96075 1.2174,-1.21741 0.36296,-0.18147 0.87976,0.2251 1.21741,0 2.91055,-1.94036 1.53934,-2.81964 4.86961,-3.6522 0.78737,-0.19685 1.63896,0.15916 2.4348,0 1.25834,-0.25167 2.43481,-0.81161 3.65221,-1.21741 1.2174,-0.4058 2.55183,-0.55717 3.65221,-1.2174 0.98421,-0.59053 1.45059,-1.84428 2.43481,-2.4348 0.7036,-0.42217 4.30694,-0.74681 4.86961,-2.43481 0.0524,-0.15731 0.0396,-5.88927 0,-6.08701 -0.25167,-1.25834 -0.90617,-2.40727 -1.21741,-3.65221 -0.0984,-0.39369 0,-0.8116 0,-1.21741 0,-1.2174 0,-2.4348 0,-3.6522 0,-0.81161 0.19685,-1.64744 0,-2.43481 -0.22007,-0.88031 -0.93045,-1.57397 -1.2174,-2.4348 -0.12832,-0.38498 0.12833,-0.83243 0,-1.21741 -0.28694,-0.86083 -0.93046,-1.57397 -1.2174,-2.4348 -0.31739,-0.95217 0.37887,-5.51871 0,-6.08702 -0.63667,-0.95501 -1.79813,-1.47979 -2.43481,-2.4348 -0.33319,-0.49979 0.33192,-4.20578 0,-4.86961 -0.16161,-0.32324 -3.32897,-3.4906 -3.65221,-3.65221 -0.36296,-0.18148 -0.85444,0.18148 -1.2174,0 -1.0266,-0.5133 -1.3213,-2.15643 -2.4348,-2.43481 -1.18106,-0.29526 -2.47116,0.29527 -3.65221,0 -0.14467,-0.0362 -4.7228,-4.57598 -4.86961,-4.86961 -0.18148,-0.36296 -0.0984,-0.82372 0,-1.2174 1.4006,-5.60243 1.82186,-3.24075 4.86961,-7.30442 0.54444,-0.72592 0.71407,-1.6798 1.2174,-2.4348 0.31834,-0.47751 0.87307,-0.7583 1.2174,-1.21741 9.05426,-12.07234 -2.01258,2.41018 3.65221,-6.08701 1.85719,-2.78579 0.96366,0.76123 2.43481,-3.65221 0.25665,-0.76995 0,-1.6232 0,-2.4348 0,-2.02901 0,-4.05801 0,-6.08702 0,-2.4348 0,-4.86961 0,-7.304416 0,-0.811602 0.19684,-1.647436 0,-2.434805 -0.29569,-1.182732 -1.32105,-2.9097 -2.43481,-3.652209 -0.755,-0.503334 -1.79318,-0.575775 -2.4348,-1.217402 -0.64163,-0.641628 -0.46241,-1.931472 -1.21741,-2.434806 -3.65221,-2.434806 -1.2174,1.217403 -3.65221,0 -1.0266,-0.513302 -1.34592,-2.071846 -2.4348,-2.434806 -0.76995,-0.256651 -1.64744,0.196843 -2.43481,0 -2.3076,-0.576901 -3.25263,-2.035233 -4.86961,-3.652208 -0.4058,-0.405801 -0.8116,-0.811602 -1.2174,-1.217403 -0.4058,-0.405801 -0.96075,-0.7041 -1.2174,-1.217403 -0.18507,-0.370134 0,-4.028967 0,-4.869611 0,-3.652208 0,-7.304416 0,-10.956625 0,-1.030715 0.21816,-4.215128 0,-4.869611 -0.18148,-0.544439 -0.81161,-0.811602 -1.21741,-1.217403 -2.7504,-2.7504 0.72592,0.36296 -4.86961,-2.434805 -0.5133,-0.256651 -0.66065,-1.078215 -1.2174,-1.217403 -1.18105,-0.295264 -2.52188,0.452132 -3.65221,0 -1.06568,-0.426274 -1.6232,-1.623204 -2.4348,-2.434806 -1.3929,-1.392893 -1.44113,-1.697778 -3.65221,-2.434805 -1.15493,-0.384977 -2.47116,0.295263 -3.65221,0 -0.88031,-0.220077 -1.57397,-0.930458 -2.43481,-1.217403 -0.38497,-0.128326 -0.87975,0.225098 -1.2174,0 -0.95501,-0.636673 -1.4082,-1.921504 -2.4348,-2.434806 -0.72592,-0.362959 -1.66486,0.256651 -2.43481,0 -0.54444,-0.181479 -0.7041,-0.960751 -1.2174,-1.217402 -0.34843,-0.174212 -5.43666,0 -6.08702,0 -6.08701,0 -12.17402,0 -18.26104,0 -4.28785,0 -0.0402,3.023389 -6.08701,0 -1.02661,-0.513303 -1.4082,-1.921504 -2.43481,-2.434806 -1.14778,-0.573889 -2.55182,-0.557173 -3.65221,-1.217403 -0.98421,-0.590527 -1.53854,-1.717794 -2.4348,-2.434805 -1.14252,-0.914014 -2.41147,-1.659345 -3.65221,-2.434806 -2.00654,-1.254086 -4.29046,-2.112302 -6.08701,-3.652208 -1.1109,-0.952197 -1.3108,-2.715532 -2.43481,-3.652209 -1.39417,-1.161804 -3.27641,-1.565786 -4.86961,-2.434805 -2.87219,-1.566647 -5.79963,-3.054815 -8.52182,-4.869611 -2.162,-1.44133 -3.71257,-3.814304 -6.08701,-4.869612 -1.48331,-0.659245 -3.2685,0.266853 -4.86962,0 -15.19936,-2.533226 -5.7785,-2.434805 -10.95662,-2.434805 -0.8116,0 -1.66485,-0.256651 -2.43481,0 -0.55574,0.185248 -3.10394,3.103942 -3.65221,3.652208 -1.2174,1.217403 -2.88225,2.112302 -3.6522,3.652209 -0.36296,0.725918 0.25665,1.664852 0,2.434805 -0.18148,0.544439 -0.96076,0.704101 -1.21741,1.217403 -0.57389,1.147778 -0.90616,2.407268 -1.2174,3.652208 -0.0984,0.393685 0.18148,0.854444 0,1.217403 -0.25665,0.513302 -1.03592,0.672964 -1.2174,1.217403 -0.69683,2.090472 1.06662,2.510198 -1.2174,3.652208 -0.36296,0.18148 -0.81161,0 -1.21741,0 -0.8116,0 -1.6232,0 -2.4348,0 -0.8187,0 -7.79484,0.181746 -8.52182,0 -0.55676,-0.139188 -0.67297,-1.035923 -1.21741,-1.217403 -0.76995,-0.256651 -1.6232,0 -2.4348,0 -3.24641,0 -6.49282,0 -9.73922,0 -2.84061,0 -5.68122,0 -8.52182,0 -1.21741,0 -2.47116,-0.295263 -3.65221,0 -0.1709,0.04272 -2.08127,2.199116 -2.43481,2.434806 -0.755,0.503334 -1.6798,0.714069 -2.4348,1.217403 -1.82427,1.216179 -4.4322,5.259603 -6.08702,6.087014 -0.72591,0.362959 -1.6232,0 -2.4348,0 -0.4058,0 -0.84063,0.15071 -1.2174,0 -4.16778,1.869998 -3.97062,-2.594009 -6.08702,-3.652209 -1.14778,-0.573889 -2.4348,-0.811601 -3.65221,-1.217402 -1.2174,-0.405801 -2.39387,-0.965736 -3.65221,-1.217403 -0.79584,-0.159168 -1.63896,0.159168 -2.4348,0 -3.74586,-0.749171 -7.21077,-2.903038 -10.95663,-3.652209 -0.79584,-0.159168 -1.6232,0 -2.4348,0 -1.2174,0 -2.43481,0 -3.65221,0 -1.41422,0 -4.98338,-0.275908 -6.08701,0 -2.72935,0.682337 -5.34851,4.131103 -7.30442,6.087014 -0.4058,0.405801 -0.8116,0.811602 -1.2174,1.217403 -0.4058,0.405801 -0.67297,1.035923 -1.21741,1.217403 -0.76995,0.256651 -1.6232,0 -2.4348,0 -0.4058,0 -0.8116,0 -1.2174,0 -0.40581,0 -0.85445,0.18148 -1.21741,0 -3.76475,-1.882376 -6.06945,-5.207406 -9.73922,-7.304417 -1.11418,-0.636673 -2.43481,-0.811602 -3.65221,-1.217403 -1.2174,-0.4058 -2.38185,-1.035923 -3.65221,-1.217402 -1.60689,-0.229556 -3.26272,0.229555 -4.86961,0 -11.21665,-1.60238 3.71165,-1.217403 -7.30441,-1.217403 -2.84061,0 -5.68122,0 -8.52182,0 -0.81161,0 -1.62321,0 -2.43481,0 -0.4058,0 -0.85444,-0.18148 -1.2174,0 -0.5133,0.256651 -0.8116,0.811602 -1.21741,1.217403 -0.8116,0.811602 -1.51658,1.746138 -2.4348,2.434805 -0.72592,0.544439 -1.67981,0.714069 -2.43481,1.217403 -0.4775,0.318336 -0.7041,0.960752 -1.2174,1.217403 -0.45233,0.226163 -7.48322,0 -8.52182,0 -1.931,0 -8.65753,0.309054 -9.73922,0 -1.40684,-0.401955 -2.26416,-1.972122 -3.65221,-2.434806 -1.15493,-0.384976 -2.4348,0 -3.65221,0 -2.029,0 -4.07042,0.224066 -6.08701,0 -1.66293,-0.184769 -3.20937,-1.009873 -4.86961,-1.217403 -2.41601,-0.302 -4.86961,0 -7.30442,0 -0.28929,0 -4.59675,-0.136428 -4.86961,0 -0.5133,0.256651 -0.7399,0.899067 -1.2174,1.217403 -0.755,0.503334 -1.67981,0.714069 -2.43481,1.217403 -1.16137,0.774249 -0.88603,1.73366 -2.4348,1.217403 -4.16284,-1.387613 -0.90594,-1.009756 -4.86962,-3.652209 -0.10014,-0.06676 -4.56755,0 -4.86961,0 -2.029,0 -4.05801,0 -6.08701,0 -0.8116,0 -1.64744,-0.196842 -2.43481,0 -0.78966,0.197415 -6.5286,3.134999 -7.30441,3.652209 -0.47751,0.318336 -0.7041,0.960752 -1.21741,1.217403 -0.36296,0.181479 -0.85444,-0.18148 -1.2174,0 -1.0266,0.513302 -1.4082,1.921503 -2.4348,2.434805 -0.36296,0.18148 -0.81161,0 -1.21741,0 -0.8116,0 -1.64743,0.196843 -2.4348,0 -2.65865,-0.664661 -5.47297,-4.255568 -7.30442,-6.087014 -0.4058,-0.405801 -0.67296,-1.035923 -1.2174,-1.217403 -1.96301,-0.654334 -4.10509,-0.622826 -6.08702,-1.217402 -9.66862,-2.900587 -3.76902,-3.54215 -17.04364,-4.869612 -4.44165,-0.444165 -8.94303,0.3707 -13.39143,0 -35.14134,-2.928445 -0.69235,-2.434805 -25.56545,-2.434805 -5.27542,0 -10.55083,0 -15.82624,0 -1.6232,0 -3.29487,-0.393685 -4.86961,0 -1.76061,0.440153 -3.31344,1.5011 -4.86961,2.434805 -0.42863,0.257179 -2.19984,2.387812 -2.43481,2.434806 -1.59168,0.318337 -3.24641,0 -4.86961,0 -0.4058,0 -0.85444,0.18148 -1.2174,0 -5.31981,-2.659903 -1.82021,-2.434806 -4.86961,-2.434806 -0.4058,0 -0.85445,-0.181479 -1.21741,0 -0.5133,0.256652 -0.66065,1.078215 -1.2174,1.217403 -1.18105,0.295264 -2.4348,0 -3.65221,0 -2.8406,0 -5.68121,0 -8.52182,0 -1.6232,0 -3.2464,0 -4.86961,0 -1.2174,0 -2.45845,0.238753 -3.65221,0 -0.88977,-0.177955 -1.54502,-1.039447 -2.4348,-1.217403 -1.19376,-0.238752 -2.43481,0 -3.65221,0 -0.4058,0 -0.85444,0.18148 -1.2174,0 -0.51331,-0.256651 -0.64352,-1.217402 -1.21741,-1.217402 -4.05063,0 -0.81897,2.434805 -4.86961,2.434805 -0.57389,0 -0.7041,-0.960751 -1.2174,-1.217403 -0.36296,-0.181479 -0.8116,0 -1.2174,0 -0.8116,0 -1.66486,0.256652 -2.43481,0 -0.54444,-0.181479 -0.7041,-0.960751 -1.2174,-1.217402 -0.36296,-0.18148 -0.8116,0 -1.2174,0 -0.40581,0 -0.81161,0 -1.21741,0 -0.28929,0 -4.59675,-0.136429 -4.86961,0 -0.5133,0.256651 -0.64351,1.217402 -1.2174,1.217402 -0.57389,0 -0.8116,-0.811601 -1.2174,-1.217402 -0.81161,-0.811602 -1.74614,-1.516583 -2.43481,-2.434806 -0.54444,-0.725919 -0.71407,-1.679804 -1.2174,-2.434805 -0.74251,-1.113764 -2.46948,-2.139123 -3.65221,-2.434806 -0.78737,-0.196842 -1.64744,0.196842 -2.43481,0 -0.8803,-0.220076 -1.57397,-0.930458 -2.4348,-1.217403 -0.38498,-0.128325 -0.8116,0 -1.2174,0 -0.81161,0 -1.62321,0 -2.43481,0 -2.029,0 -4.05801,0 -6.08701,0 -0.5554,0 -5.84907,0.158634 -6.08702,0 -1.36118,-0.907453 -3.54455,-3.544548 -4.86961,-4.869611 -0.4058,-0.405801 -0.7399,-0.899066 -1.2174,-1.217403 -0.755,-0.5033339 -1.67981,-0.7140685 -2.43481,-1.2174026 -0.4775,-0.3183364 -0.7041,-0.9607517 -1.2174,-1.2174028 -1.14778,-0.5738891 -2.43481,-0.8116018 -3.65221,-1.2174028 -1.2174,-0.4058009 -2.40727,-0.9061676 -3.65221,-1.2174027 -0.78737,-0.1968424 -1.6232,0 -2.4348,0 -2.02901,0 -4.05801,0 -6.08702,0 -0.8116,0 -1.6232,0 -2.4348,0 -0.4058,0 -0.85445,0.1814796 -1.2174,0 -2.21679,-1.1083929 -0.71364,-0.9234958 -1.21741,-2.4348056 -0.57389,-1.7216676 -1.86091,-3.14794365 -2.4348,-4.8696112 -0.12833,-0.3849766 0.18148,-0.8544434 0,-1.2174028 -0.75218,-1.5043474 -1.17538,-1.2174028 -2.43481,-1.2174028 -0.4058,0 -0.83243,-0.1283255 -1.2174,0 -0.86084,0.2869446 -1.62321,0.8116019 -2.43481,1.2174028 -0.8116,0.405801 -1.6798,0.7140687 -2.4348,1.2174028 -0.47751,0.3183365 -0.8116,0.8116019 -1.21741,1.2174028 -0.8116,0.81160186 -1.6232,1.62320372 -2.434801,2.4348056 -0.405801,0.4058009 -0.704101,0.9607517 -1.217403,1.2174028 -0.362959,0.1814797 -0.832426,-0.1283255 -1.217403,0 -8.818155,2.9393851 1.919366,-0.3509817 -3.652208,2.4348056 -0.36296,0.1814796 -0.854444,-0.1814797 -1.217403,0 -0.513302,0.256651 -0.811602,0.8116018 -1.217403,1.2174027 -0.405801,0.405801 -0.960751,0.7041007 -1.217403,1.2174028 -0.181479,0.3629594 0.128326,0.8324263 0,1.2174028 -0.286944,0.8608338 -0.997326,1.5544996 -1.217402,2.4348056 -0.196843,0.787369 0.256651,1.664852 0,2.434806 -0.18148,0.544439 -0.899067,0.739898 -1.217403,1.217402 -1.006668,1.510003 -1.428137,3.359609 -2.434806,4.869612 -0.318336,0.477504 -1.078214,0.660648 -1.217402,1.217402 0,1.217403 0,2.434806 0,3.652209 -0.405801,0.405801 -1.035924,0.672963 -1.217403,1.217402 -0.256651,0.769954 0,1.623204 0,2.434806 0,0.811602 0,1.623204 0,2.434806 0,3.246407 0,6.492815 0,9.739222 0,2.616649 0.323516,3.775636 -1.217403,6.087014 -0.318336,0.477505 -0.704101,0.960752 -1.217403,1.217403 -0.725919,0.362959 -1.664852,-0.256651 -2.434805,0 -1.721668,0.573889 -3.109,1.994652 -4.869612,2.434805 -0.787369,0.196843 -1.634246,-0.133426 -2.434805,0 -1.650395,0.275066 -3.236294,0.854444 -4.869611,1.217403 -2.019914,0.44887 -4.05801,0.811602 -6.087014,1.217403 -6.087014,1.217403 -12.186635,2.373386 -18.261042,3.652208 -3.661048,0.770747 -7.26623,1.81974 -10.956625,2.434806 -17.37127,2.895211 -4.758762,-1.256992 -21.9132505,4.869611 -2.0579932,0.734998 -4.33877,1.123623 -6.0870139,2.434806 -0.4591114,0.344333 0.8116018,0.811601 1.2174028,1.217402 0.8116018,0.811602 1.7981327,1.479797 2.4348056,2.434806 0.5033341,0.755001 0.5757751,1.793178 1.2174027,2.434806 0.2869446,0.286944 0.8544434,-0.18148 1.2174028,0 0.5133021,0.256651 0.8116019,0.811601 1.2174028,1.217402 0.4058007,0.405801 1.0359227,0.672964 1.2174027,1.217403 0.384977,1.15493 0,2.434806 0,3.652208 0,1.623204 -0.229556,3.262722 0,4.869612 0.236621,1.656344 0.942337,3.219216 1.217403,4.869611 0.133426,0.800559 -0.301421,1.681252 0,2.434805 0.543395,1.358488 1.972121,2.264156 2.434805,3.652209 0.384977,1.154929 -0.200139,2.451369 0,3.652208 0.210966,1.265795 0.965736,2.393873 1.217403,3.652213 0.159168,0.79584 0,1.6232 0,2.4348 0,1.6232 0,3.24641 0,4.86961 0,1.21741 0,2.43481 0,3.65221 0,0.4058 0.128326,0.83243 0,1.2174 -0.286944,0.86084 -0.997326,1.5545 -1.217403,2.43481 -0.196842,0.78737 0.36296,1.70889 0,2.4348 -0.513302,1.02661 -1.798132,1.4798 -2.434805,2.43481 -0.225098,0.33765 0,0.8116 0,1.2174 0,2.02901 0,4.05801 0,6.08702 0,1.2174 0,2.4348 0,3.65221 0,0.4058 -0.128326,0.83242 0,1.2174 1.022538,3.06761 4.326897,6.11341 7.304417,7.30441 1.402007,0.56081 3.99461,0.68481 4.869611,2.43481 0.217416,0.43483 0,7.02263 0,7.30442 0,4.86961 0,9.73922 0,14.60883 0,0.30206 -0.06676,4.76947 0,4.86961 0.636673,0.95501 1.479796,1.79813 2.434805,2.43481 1.391318,0.92754 1.496108,-1.59869 2.434806,1.2174 0.256651,0.76995 0,1.6232 0,2.43481 0,1.6232 0,3.2464 0,4.86961 0,0.8116 -0.159168,1.63896 0,2.4348 0.251667,1.25834 0.965736,2.39388 1.217403,3.65221 0.159168,0.79584 0,1.6232 0,2.43481 0,1.2174 0,2.4348 0,3.6522 0,4.46381 0,8.92763 0,13.39144 0,1.6232 0,3.2464 0,4.86961 0,0.8116 0.196842,1.64743 0,2.4348 -0.220077,0.88031 -0.930458,1.57397 -1.217403,2.43481 -0.128326,0.38497 0.225098,0.87975 0,1.2174 -0.636673,0.95501 -1.623204,1.6232 -2.434806,2.43481 -2.029004,2.029 -4.058009,4.05801 -6.087014,6.08701 -0.4058,0.4058 -0.960751,0.7041 -1.217402,1.2174 -0.185249,0.3705 0,3.10394 0,3.65221 0,1.05498 -0.235071,4.1644 0,4.86961 0.296555,0.88967 1.32049,3.09505 2.434805,3.65221 0.36296,0.18148 0.930458,-0.28694 1.217403,0 0.641628,0.64163 0.575775,1.79318 1.217403,2.43481 1.034593,1.03459 2.481699,1.55692 3.652208,2.4348 2.127759,1.59582 0.535855,1.12028 2.434806,3.65221 0.688667,0.91822 2.008531,1.36912 2.434805,2.43481 0.452132,1.13033 0,2.4348 0,3.6522 0,2.02901 0,4.05801 0,6.08702 0,2.8406 0,5.68121 0,8.52182 0,0.8116 0,1.6232 0,2.4348 0,0.81161 0.196843,1.64744 0,2.43481 -0.220076,0.8803 -0.997326,1.5545 -1.217402,2.4348 -0.09448,0.37793 -0.110842,6.9719 0,7.30442 0.181479,0.54444 0.811601,0.8116 1.217402,1.2174 0.405801,0.4058 0.739898,0.89907 1.217403,1.21741 1.510002,1.00667 3.417774,1.34592 4.869611,2.4348 1.696069,1.27205 3.333732,3.33373 4.869611,4.86961 0.405801,0.4058 0.811602,0.81161 1.217403,1.21741 0.405801,0.4058 0.960752,0.7041 1.217403,1.2174 0.18148,0.36296 0,0.8116 0,1.2174 0,0.4058 0,0.8116 0,1.2174 0,1.21741 0,2.43481 0,3.65221 0,2.02901 0,4.05801 0,6.08702 0,0.8116 0,1.6232 0,2.4348 0,0.4058 0.09842,0.82372 0,1.21741 -0.311235,1.24494 -0.965736,2.39387 -1.217403,3.6522 -0.159168,0.79584 0,1.62321 0,2.43481 0,3.24051 0,1.6291 0,4.86961 0,1.05498 -0.23507,4.1644 0,4.86961 0.286945,0.86084 0.880404,1.59231 1.217403,2.43481 0.476589,1.19147 0.643514,2.50443 1.217403,3.65221 0.256651,0.5133 0.811602,0.8116 1.217403,1.2174 0.405801,0.4058 0.811601,0.8116 1.217402,1.2174 1.623204,1.6232 3.246408,3.24641 4.869612,4.86961 0.811601,0.8116 1.798132,1.4798 2.434805,2.43481 0.06676,0.10014 0,4.56755 0,4.86961 0,3.24641 0,6.49281 0,9.73922 0,1.03072 -0.218161,4.21513 0,4.86961 0.05041,0.15124 3.443351,3.54778 3.652209,3.65221 0.362959,0.18148 0.854443,-0.18148 1.217402,0 0.513302,0.25665 0.739898,0.89907 1.217403,1.2174 0.755001,0.50334 1.679805,0.71407 2.434806,1.21741 0.477504,0.31833 0.739898,0.89906 1.217402,1.2174 1.391318,0.92754 4.672891,2.15198 6.087014,2.4348 0.795842,0.15917 1.647437,-0.19684 2.434806,0 1.416198,0.35405 5.432425,3.16127 6.087014,3.65221 0.459111,0.34434 0.704101,0.96076 1.217403,1.21741 0.362959,0.18148 0.854443,-0.18148 1.217403,0 0.513302,0.25665 1.035923,0.67296 1.217402,1.2174 0.230845,0.69253 0,4.94042 0,6.08701 0,0.4058 -0.128325,0.83243 0,1.21741 0.737027,2.21108 1.041912,2.25931 2.434806,3.6522 0.405801,0.4058 0.704101,0.96076 1.217403,1.21741 0.362959,0.18148 0.832426,-0.12833 1.217402,0 0.860834,0.28694 1.573972,0.93045 2.434806,1.2174 1.51131,0.50377 1.326413,-0.99938 2.434806,1.2174 0.359146,0.71829 -0.279123,2.81484 0,3.65221 0.286944,0.86083 0.930458,1.57397 1.217402,2.43481 0.204017,0.61205 0,6.98643 0,7.30441 0,0.4058 0,0.8116 0,1.21741 0,0.4058 -0.181479,0.85444 0,1.2174 0.184166,0.36833 4.50128,4.68544 4.86961,4.86961 0.36296,0.18148 0.8116,0 1.2174,0 1.21741,0 2.43481,0 3.65221,0 2.02901,0 4.05801,0 6.08702,0 2.8406,0 5.68121,0 8.52182,0 1.2174,0 2.45844,-0.23875 3.6522,0 0.88978,0.17796 1.54503,1.03945 2.43481,1.2174 1.24961,0.24992 6.80747,0 8.52182,0 0.8116,0 1.6232,0 2.43481,0 0.4058,0 0.87975,0.2251 1.2174,0 0.1369,-0.0913 4.40614,-4.75374 4.86961,-4.86961 1.18105,-0.29526 2.56333,0.54444 3.65221,0 0.8116,-0.4058 0.71407,-1.6798 1.2174,-2.4348 0.92676,-1.39014 2.43481,-1.44549 2.43481,-3.65221 0,-0.4058 -0.85445,-0.18148 -1.21741,0 -0.65019,0.3251 -3.01129,3.01129 -3.65221,3.65221"
       id="path6276"
       inkscape:connector-curvature="0" />
    <path
       style="fill:none;fill-rule:evenodd;stroke:#000000;stroke-width:1px;stroke-linecap:butt;stroke-linejoin:miter;stroke-opacity:1"
       d="m 231.30653,394.9647 c 1.6232,2.029 3.03227,4.24967 4.86961,6.08701 0.0437,0.0437 4.65878,2.30831 4.86961,2.43481 1.25463,0.75277 2.43481,1.6232 3.65221,2.4348 1.2174,0.8116 2.26416,1.97212 3.65221,2.43481 4.55961,0 2.56333,-0.54444 6.08701,1.2174 1.62321,0.8116 3.31344,1.5011 4.86961,2.43481 2.65182,1.59109 -0.5494,1.3844 3.65221,2.4348 0.78737,0.19684 1.62321,0 2.43481,0 2.4348,0 4.86961,0 7.30442,0 0.34035,0 5.89653,0.0952 6.08701,0 1.0266,-0.5133 1.51658,-1.74614 2.4348,-2.4348 0.72592,-0.54444 1.67981,-0.71407 2.43481,-1.21741 0.95501,-0.63667 1.4082,-1.9215 2.43481,-2.4348 0.36296,-0.18148 0.8116,0 1.2174,0 3.376,0 -1.94332,-0.18148 3.65221,1.2174 0.78737,0.19684 1.6232,0 2.4348,0 0.4058,0 0.87976,-0.2251 1.21741,0 0.955,0.63667 1.4082,1.9215 2.4348,2.43481 0.72592,0.36296 1.64744,-0.19685 2.43481,0 0.8803,0.22007 1.57397,0.93046 2.4348,1.2174 0.38498,0.12833 0.8116,0 1.2174,0 2.84061,0 5.68122,0 8.52182,0 1.07334,0 2.6149,-0.25933 3.65221,0 1.24494,0.31123 2.50443,0.64351 3.65221,1.2174 0.5133,0.25665 0.8116,0.8116 1.2174,1.21741 1.21741,1.2174 2.43481,2.4348 3.65221,3.6522 2.43481,2.43481 4.86961,4.86961 7.30442,7.30442 0.9509,0.9509 2.60171,2.95188 3.65221,3.65221 0.755,0.50333 1.57397,0.93046 2.4348,1.2174 0.38498,0.12833 0.8116,0 1.21741,0 2.029,0 4.05801,0 6.08701,0 4.46381,0 8.92762,0 13.39143,0 4.46381,0 8.92762,0 13.39143,0 2.02901,0 4.10633,0.44015 6.08701,0 1.77159,-0.39368 3.12465,-1.93624 4.86962,-2.4348 4.81993,-1.37713 2.36929,1.57088 6.08701,-1.21741 1.69607,-1.27205 3.33373,-3.33373 4.86961,-4.86961 0.4058,-0.4058 0.64351,-1.2174 1.2174,-1.2174 0.0384,0 -0.36475,5.26515 1.21741,4.86961 1.67026,-0.41757 2.6972,-2.21969 3.65221,-3.65221 0.71182,-1.06773 0.74081,-2.46073 1.2174,-3.65221 0.337,-0.84249 0.71407,-1.6798 1.2174,-2.4348 0.31834,-0.47751 1.03592,-0.67297 1.2174,-1.2174 0.69683,-2.09048 -1.06661,-2.5102 1.21741,-3.65221 0.36296,-0.18148 0.8116,0 1.2174,0 0.8116,0 1.6232,0 2.4348,0 0.81161,0 1.66486,-0.25665 2.43481,0 0.15123,0.0504 3.54778,3.44335 3.65221,3.65221 0.36296,0.72591 -0.25665,1.66485 0,2.4348 0.28694,0.86083 0.99733,1.5545 1.2174,2.43481 0.19684,0.78737 -0.25665,1.66485 0,2.4348 0.18148,0.54444 0.8116,0.8116 1.2174,1.2174 0.40581,0.40581 0.64352,1.21741 1.21741,1.21741 0.57389,0 0.8116,-1.62321 1.2174,-1.21741 0.4058,0.40581 -1.2174,1.7913 -1.2174,1.21741 0,-0.9074 0.93046,-1.57397 1.2174,-2.43481 0.23743,-0.71228 0,-8.38618 0,-9.73922"
       id="path6278"
       inkscape:connector-curvature="0" />
    <path
       sodipodi:type="spiral"
       style="fill:none;fill-rule:evenodd;stroke:#000000;stroke-width:1px;stroke-linecap:butt;stroke-linejoin:miter;stroke-opacity:1"
       id="path6301"
       sodipodi:cx="94.95742"
       sodipodi:cy="847.83856"
       sodipodi:expansion="1"
       sodipodi:revolution="3"
       sodipodi:radius="20.261621"
       sodipodi:argument="-17.850098"
       sodipodi:t0="0"
       d="m 94.95742,847.83856 c 0.549349,0.85454 -0.880874,1.16211 -1.420302,0.91305 -1.461817,-0.67493 -1.281045,-2.69597 -0.405804,-3.75365 1.565601,-1.89196 4.48211,-1.51945 6.087015,0.10144 2.355261,2.37872 1.770691,6.29457 -0.608697,8.42037 -3.171354,2.83336 -8.116645,2.02777 -10.753726,-1.11594 -3.318497,-3.95605 -2.287926,-9.94337 1.623197,-13.08708 4.736893,-3.80746 11.772727,-2.54989 15.420437,2.13044 4.29869,5.51561 2.81297,13.60374 -2.6377,17.75379 -6.293004,4.79141 -15.435832,3.07681 -20.087145,-3.14494 -5.285117,-7.06956 -3.341178,-17.26871 3.652196,-22.42051 7.845508,-5.77953 19.102139,-3.60592 24.753859,4.15945 6.27448,8.62104 3.87097,20.93599 -4.66669,27.08722" />
    <text
       xml:space="preserve"
       style="font-style:normal;font-weight:normal;font-size:39.54005051px;line-height:125%;font-family:sans-serif;letter-spacing:0px;word-spacing:0px;fill:#000000;fill-opacity:1;stroke:none;stroke-width:1px;stroke-linecap:butt;stroke-linejoin:miter;stroke-opacity:1"
       x="134.15919"
       y="794.78882"
       id="text6303"
       sodipodi:linespacing="125%"
       transform="scale(0.91642354,1.0911985)"><tspan
         sodipodi:role="line"
         id="tspan6305"
         x="134.15919"
         y="794.78882">The &quot;Front End&quot;</tspan></text>
  </g>
</svg>
